<?xml version="1.0" encoding="UTF-8"?>
<svg version="1.1" xmlns="http://www.w3.org/2000/svg" width="600" height="634">
<path d="M0 0 C0.85715607 -0.00067474 1.71431213 -0.00134949 2.59744263 -0.00204468 C76.34797431 0.08954537 149.35925375 27.02654172 203.63671875 77.47265625 C205.70318963 79.40393545 205.70318963 79.40393545 208.625 81.25 C208.625 81.91 208.625 82.57 208.625 83.25 C209.20636719 83.50523438 209.78773438 83.76046875 210.38671875 84.0234375 C217.29357346 87.80834567 222.55421539 95.33083412 227.625 101.25 C228.53049377 102.28061283 229.43680958 103.31050375 230.34375 104.33984375 C237.60854784 112.63635699 244.23324987 121.2663197 250.625 130.25 C250.295 130.91 249.965 131.57 249.625 132.25 C248.8 131.3528125 247.975 130.455625 247.125 129.53125 C228.95675215 109.73485138 228.95675215 109.73485138 208.625 92.25 C208.09148926 91.84007813 207.55797852 91.43015625 207.00830078 91.0078125 C148.37483768 46.08152057 74.86934947 25.27678116 1.39770508 34.39697266 C-53.29584548 41.81882947 -106.30302738 64.58175389 -147.11328125 102.171875 C-149.16526416 104.05728935 -151.25651954 105.87770033 -153.375 107.6875 C-160.94618146 114.29507655 -167.95521413 121.52319186 -174.375 129.25 C-174.79475098 129.75063965 -175.21450195 130.2512793 -175.64697266 130.76708984 C-203.19038578 163.771284 -235.375 215.43095561 -235.375 260.25 C-234.92511719 259.18265625 -234.47523438 258.1153125 -234.01171875 257.015625 C-222.51622927 230.19687967 -207.26027576 205.00518204 -187.4375 183.49609375 C-185.63584243 181.53406136 -183.90712157 179.53345251 -182.1875 177.5 C-173.45600031 167.51246091 -163.87297581 158.35473097 -153.375 150.25 C-152.26679785 149.38558232 -151.15873095 148.52099123 -150.05078125 147.65625 C-144.57647517 143.40174519 -139.06211516 139.21775476 -133.375 135.25 C-132.715 135.58 -132.055 135.91 -131.375 136.25 C-133.37374139 138.10553888 -135.37391484 139.95949131 -137.375 141.8125 C-137.97368896 142.36824707 -138.57237793 142.92399414 -139.18920898 143.49658203 C-142.21070746 146.29149874 -145.25653228 149.01133862 -148.4375 151.625 C-164.48566221 165.58285537 -176.2940792 184.79422333 -186.375 203.25 C-186.72046875 203.8776123 -187.0659375 204.50522461 -187.421875 205.15185547 C-199.47275906 227.28424242 -206.23909299 252.35550153 -209.375 277.25 C-209.4692627 277.91942627 -209.56352539 278.58885254 -209.66064453 279.27856445 C-211.81945032 295.92145091 -211.14760595 313.86953619 -209.125 330.5 C-209.01575195 331.43142822 -208.90650391 332.36285645 -208.79394531 333.32250977 C-207.17590192 345.03421363 -203.52603551 354.46039156 -194.375 362.25 C-181.18710354 370.83792659 -165.93711333 367.98112959 -151.1875 366.3125 C-148.5079493 366.01649327 -145.82811039 365.72384338 -143.14762878 365.43638611 C-141.49298766 365.25823608 -139.83888331 365.07499131 -138.1855011 364.88551331 C-118.81821382 362.76643778 -100.94792323 366.03650079 -85.375 378.25 C-83.828125 379.3946875 -83.828125 379.3946875 -82.25 380.5625 C-78.15489424 384.39053364 -74.58265296 388.6501931 -71.375 393.25 C-71.375 393.91 -71.375 394.57 -71.375 395.25 C-71.92099854 395.25364563 -72.46699707 395.25729126 -73.02954102 395.26104736 C-78.74065886 395.30303651 -84.4509853 395.37249548 -90.16162109 395.45751953 C-92.28947005 395.48564943 -94.41742194 395.50690346 -96.54541016 395.52099609 C-99.6141398 395.54253608 -102.68164211 395.58924371 -105.75 395.640625 C-106.69302979 395.64185364 -107.63605957 395.64308228 -108.60766602 395.64434814 C-115.45519799 395.79431982 -121.21485378 397.13011042 -126.21484375 402.06640625 C-126.57707031 402.64261719 -126.93929687 403.21882813 -127.3125 403.8125 C-127.69277344 404.39128906 -128.07304687 404.97007812 -128.46484375 405.56640625 C-131.3173599 410.842949 -131.24028131 416.45198363 -130.375 422.25 C-124.53912757 439.46000075 -112.29983476 454.68688661 -96.375 463.25 C-95.70597656 463.63027344 -95.03695312 464.01054687 -94.34765625 464.40234375 C-84.13677704 469.9358468 -72.94238785 470.93457964 -61.5625 471.875 C-60.18937418 471.99650693 -58.81632641 472.11889933 -57.44335938 472.2421875 C-49.75640603 472.92283266 -42.06623264 473.49370283 -34.36279297 473.95751953 C-26.89736114 474.68832418 -22.39666814 476.61482489 -17.375 482.25 C-15.45609933 484.92365607 -13.72441893 487.69796617 -12 490.5 C-11.48598633 491.3242749 -10.97197266 492.1485498 -10.44238281 492.99780273 C-5.61574939 500.7752447 -0.91977825 508.63188463 3.77270508 516.49072266 C8.35260844 524.15542976 13.00070315 531.7752484 17.6875 539.375 C18.3460498 540.44766113 19.00459961 541.52032227 19.68310547 542.62548828 C22.97419887 547.98110521 26.29481006 553.31388922 29.67578125 558.61328125 C30.3195874 559.63599121 30.96339355 560.65870117 31.62670898 561.71240234 C32.83205946 563.62669934 34.05063496 565.5327657 35.28540039 567.42822266 C39.45724372 574.10193312 42.38867192 581.03195514 41.21606445 589.04418945 C39.828065 594.81118098 37.3119083 599.54567206 32.625 603.25 C26.7375134 606.57342209 21.33383399 608.0198662 14.625 607.25 C4.59338183 604.08212058 -0.0155535 597.86358529 -4.71582031 588.9309082 C-5.33149532 587.72483089 -5.9470528 586.51869358 -6.5625 585.3125 C-7.21173618 584.06978234 -7.86247197 582.82784705 -8.51464844 581.58666992 C-11.69117393 575.52342216 -14.79771885 569.42445216 -17.91015625 563.328125 C-18.45454346 562.26843506 -18.99893066 561.20874512 -19.55981445 560.11694336 C-20.58557249 558.11518719 -21.60142419 556.10831665 -22.60620117 554.09594727 C-23.06099854 553.20447998 -23.5157959 552.3130127 -23.984375 551.39453125 C-24.37592773 550.61440674 -24.76748047 549.83428223 -25.17089844 549.03051758 C-26.33039065 546.92670021 -26.33039065 546.92670021 -29.375 546.25 C-30.82343526 550.84792135 -29.85846945 553.12318988 -27.69140625 557.3359375 C-26.79941528 559.09369507 -26.79941528 559.09369507 -25.8894043 560.88696289 C-25.23912277 562.13315965 -24.58848187 563.37916894 -23.9375 564.625 C-23.28768278 565.89321761 -22.63900239 567.16201836 -21.99145508 568.43139648 C-18.00239047 576.22528763 -13.93373478 583.97956139 -9.73046875 591.66015625 C-7.37927483 596.15249507 -6.72084046 600.23784803 -7.375 605.25 C-8.78677322 609.25136866 -10.90506884 611.81363536 -14 614.6875 C-19.92778834 617.43184645 -25.05418186 617.10096665 -31.125 614.875 C-39.18953529 609.44670141 -43.45931224 596.56344264 -47.89459229 588.10247803 C-49.87233281 584.33045606 -51.85954306 580.56343784 -53.84765625 576.796875 C-54.23729553 576.0585141 -54.62693481 575.3201532 -55.02838135 574.55941772 C-59.69712438 565.72702383 -64.50872449 556.97499618 -69.375 548.25 C-70.695 548.25 -72.015 548.25 -73.375 548.25 C-71.35125217 555.05574309 -68.56319182 561.20014787 -65.3125 567.5 C-64.33333523 569.43423819 -63.35550519 571.36915255 -62.37890625 573.3046875 C-61.88277832 574.2853418 -61.38665039 575.26599609 -60.87548828 576.27636719 C-58.46947214 581.04455407 -56.09128524 585.82469926 -53.75 590.625 C-53.11179321 591.89778809 -53.11179321 591.89778809 -52.46069336 593.19628906 C-49.38927759 599.5399658 -47.73671788 604.82648682 -49.0625 611.9375 C-50.88776718 616.54412669 -52.89335802 619.20200933 -56.9375 622.0625 C-61.81447031 623.74727156 -66.26869052 623.93489993 -71.375 623.25 C-77.82374066 620.08425458 -81.26057171 615.08169853 -84.00390625 608.5859375 C-84.47642822 607.47581299 -84.9489502 606.36568848 -85.43579102 605.22192383 C-85.93135498 604.03493896 -86.42691895 602.8479541 -86.9375 601.625 C-87.46153489 600.38865163 -87.98620275 599.15257138 -88.51147461 597.91674805 C-91.24894897 591.45172869 -93.90647431 584.95761628 -96.5 578.43359375 C-96.87390114 577.49764374 -96.87390114 577.49764374 -97.25535583 576.54278564 C-98.45466818 573.54032689 -99.64192617 570.53427471 -100.80883789 567.51904297 C-101.23414795 566.4467041 -101.65945801 565.37436523 -102.09765625 564.26953125 C-102.46640869 563.32182861 -102.83516113 562.37412598 -103.21508789 561.39770508 C-104.23950929 558.91490996 -104.23950929 558.91490996 -107.375 558.25 C-106.79708798 564.06451242 -105.1620334 568.98074265 -103.03125 574.40234375 C-102.35541989 576.1659969 -101.67964019 577.92966937 -101.00390625 579.69335938 C-99.9399302 582.44364171 -98.87296349 585.19273708 -97.80419922 587.94116211 C-96.76820598 590.6128964 -95.74312806 593.28863884 -94.71875 595.96484375 C-94.39894165 596.77654526 -94.0791333 597.58824677 -93.74963379 598.42454529 C-91.65255971 603.91514344 -89.51431846 609.77932963 -90.9765625 615.67578125 C-93.1889122 619.75427325 -94.79250836 622.69000285 -99.375 624.25 C-105.21249042 624.96497945 -110.76497378 625.12916498 -115.70619202 621.60404968 C-121.6773173 616.75915418 -124.68494399 611.05843968 -127.28515625 603.94921875 C-127.61994492 603.07280228 -127.95473358 602.1963858 -128.29966736 601.29341125 C-129.35932942 598.51307552 -130.3994128 595.72595448 -131.4375 592.9375 C-136.70766641 574.06726448 -136.70766641 574.06726448 -148.1875 560.1875 C-150.0078125 559.109375 -150.0078125 559.109375 -151.375 557.25 C-151.66406304 553.64782981 -151.61789569 550.23047655 -151.46362305 546.62963867 C-151.25076958 540.95497756 -151.57322961 536.75148274 -155.375 532.25 C-157.78413086 529.76357082 -160.1335791 527.63495437 -163.50390625 526.58984375 C-165.375 525.25 -165.375 525.25 -166.02734375 521.87109375 C-166.13379124 520.47738602 -166.22820463 519.08272278 -166.3125 517.6875 C-167.12452666 509.055993 -169.17985005 502.91707467 -175.75 496.9375 C-179.08722934 494.30438938 -182.62447357 492.24007525 -186.375 490.25 C-186.32859375 489.42757813 -186.2821875 488.60515625 -186.234375 487.7578125 C-185.96321761 479.37130188 -186.39518869 472.11650502 -191.8828125 465.40625 C-196.82963813 460.71251777 -202.7480382 458.37616982 -209.53320312 458.14013672 C-213.53946518 458.25470319 -217.32715129 458.81158102 -221.25 459.5625 C-222.34223877 459.7622644 -222.34223877 459.7622644 -223.45654297 459.96606445 C-225.76381979 460.38819967 -228.06953478 460.81808761 -230.375 461.25 C-233.41540968 461.81959896 -236.45717163 462.38098359 -239.5 462.9375 C-240.18562012 463.06874268 -240.87124023 463.19998535 -241.57763672 463.33520508 C-245.89836017 464.12449676 -249.99144847 464.67225176 -254.375 464.25 C-256.05249023 462.75976563 -256.05249023 462.75976563 -257.18359375 460.65625 C-257.61623535 459.88168457 -258.04887695 459.10711914 -258.49462891 458.30908203 C-259.1469751 457.04233643 -259.1469751 457.04233643 -259.8125 455.75 C-260.28349121 454.88358887 -260.75448242 454.01717773 -261.23974609 453.12451172 C-262.64723374 450.51388775 -264.01458306 447.8853946 -265.375 445.25 C-266.09727451 443.88781835 -266.81989623 442.52582072 -267.54296875 441.1640625 C-287.51203854 402.91697081 -300.36455547 359.10872523 -300.578125 315.7734375 C-300.58513931 314.81314636 -300.59215363 313.85285522 -300.59938049 312.86346436 C-300.61677365 309.78392787 -300.62323229 306.7045838 -300.625 303.625 C-300.62567474 302.57165466 -300.62634949 301.51830933 -300.62704468 300.43304443 C-300.61114586 284.81861753 -300.15299776 269.65230366 -297.375 254.25 C-297.20339355 253.24533691 -297.03178711 252.24067383 -296.85498047 251.20556641 C-287.12457396 195.02312096 -262.09583326 142.825393 -223.59765625 100.6953125 C-222.16950584 99.12409606 -220.75891432 97.53663764 -219.37109375 95.9296875 C-200.29097964 73.98936653 -176.5929842 56.16470763 -151.58105469 41.54101562 C-150.14510627 40.70067751 -148.71321196 39.85336033 -147.28613281 38.99804688 C-111.23098613 17.42308476 -70.7935384 6.23706405 -29.375 1.25 C-28.50568848 1.14397461 -27.63637695 1.03794922 -26.74072266 0.92871094 C-17.85317679 -0.01970187 -8.92826312 0.00634102 0 0 Z M-237.375 263.25 C-236.375 265.25 -236.375 265.25 -236.375 265.25 Z " fill="#7DD956" transform="translate(300.375,7.75)"/>
<path d="M0 0 C0.66 0.33 1.32 0.66 2 1 C2.4653988 3.41824868 2.80245209 5.7451278 3.0625 8.1875 C3.14483887 8.91074463 3.22717773 9.63398926 3.31201172 10.37915039 C8.6220228 58.40583474 -0.26121735 103.95624633 -22 147 C-6.16421864 139.89189359 7.15451637 129.52711113 20 118 C21.03881938 117.08435951 22.07787598 116.16898808 23.1171875 115.25390625 C55.39924973 86.56336658 74.951387 49.65905906 88 9 C88.33 9 88.66 9 89 9 C85.25999807 65.45687321 53.64059197 123.61679654 15.49609375 164.3203125 C13.38088079 166.5911045 11.33278584 168.89529043 9.3125 171.25 C3.38588555 178.06560662 -3.13603856 184.14646943 -10 190 C-10.95777344 190.8353125 -11.91554688 191.670625 -12.90234375 192.53125 C-45.44360647 220.7427295 -95.33300675 252.87985074 -139.50390625 256.1875 C-145.60177457 255.63209643 -148.81385068 253.35754783 -153 249 C-154.71305899 246.69838265 -156.07532617 244.27175851 -157.4375 241.75 C-158.29646275 240.22876159 -159.15866361 238.70934874 -160.0234375 237.19140625 C-160.49362305 236.3627002 -160.96380859 235.53399414 -161.44824219 234.68017578 C-164.37931671 229.61766224 -167.48183269 224.65985751 -170.5625 219.6875 C-176.24917475 210.48262062 -181.89418847 201.254301 -187.5 192 C-194.41780453 180.58457071 -201.37697952 169.19579727 -208.3984375 157.84375 C-210.61768472 154.25478386 -212.81363517 150.65441271 -214.9765625 147.03125 C-215.4207251 146.29616211 -215.8648877 145.56107422 -216.32250977 144.80371094 C-217.10629702 143.50557776 -217.88141579 142.20213563 -218.64428711 140.89160156 C-222.53836234 134.49620265 -228.00608968 129.72234153 -235 127 C-237.6477476 126.53801569 -240.14622374 126.21545071 -242.8125 126 C-243.60221191 125.92442871 -244.39192383 125.84885742 -245.20556641 125.77099609 C-250.12899392 125.30831254 -255.05757757 124.91401566 -259.98716736 124.52325439 C-262.88955746 124.29058511 -265.79100882 124.04711968 -268.69247437 123.80322266 C-270.82266224 123.62927384 -272.95364625 123.47250093 -275.08520508 123.31640625 C-292.1998011 121.95851317 -306.936084 116.65553662 -319 104 C-325.35410454 96.33648129 -333.20979314 85.1740755 -333.6875 74.9375 C-332.94274995 70.67211333 -332.16792283 68.90392926 -329 66 C-325.81109159 64.03696373 -323.37669706 63.74582528 -319.65769958 63.73257446 C-318.57425766 63.72404449 -317.49081573 63.71551453 -316.37454224 63.70672607 C-315.19060883 63.70763245 -314.00667542 63.70853882 -312.78686523 63.70947266 C-311.53598618 63.70275543 -310.28510712 63.69603821 -308.99632263 63.68911743 C-305.56610402 63.67336755 -302.13612757 63.66676175 -298.70588946 63.66548586 C-296.5589671 63.66406275 -294.41206997 63.65978992 -292.26515388 63.65449142 C-284.76358562 63.63598413 -277.26208839 63.62782088 -269.76049805 63.62939453 C-262.78841463 63.63059317 -255.81664217 63.60954749 -248.84463733 63.5779072 C-242.84526897 63.55165987 -236.84600154 63.5410309 -230.84657627 63.54230535 C-227.26968622 63.54281291 -223.69307199 63.53724639 -220.11623955 63.51594925 C-216.11691351 63.49278816 -212.11827166 63.50213906 -208.11889648 63.51416016 C-206.36425079 63.49730164 -206.36425079 63.49730164 -204.57415771 63.48010254 C-194.64658593 63.55559531 -185.48418491 65.55832597 -178.12890625 72.6015625 C-173.6479585 77.6498229 -169.74470601 83.14213549 -165.77148438 88.59179688 C-162.48461463 93.06005531 -159.11378992 97.46454062 -155.75 101.875 C-154.77643555 103.15721436 -154.77643555 103.15721436 -153.78320312 104.46533203 C-137.81511516 125.54224598 -137.81511516 125.54224598 -114 136 C-113.07767578 136.21849609 -113.07767578 136.21849609 -112.13671875 136.44140625 C-100.18214446 138.5801719 -87.00409148 134.35984437 -77 128 C-63.76303049 118.76765763 -51.47074365 106.00728716 -42 93 C-41.61682617 92.48260254 -41.23365234 91.96520508 -40.83886719 91.43212891 C-20.51588385 63.95729289 -6.91655549 33.49068972 0 0 Z " fill="#38B549" transform="translate(511,348)"/>
<path d="M0 0 C1.10859375 0.07863281 2.2171875 0.15726562 3.359375 0.23828125 C6.25 0.6875 6.25 0.6875 9.25 2.6875 C11.28983073 2.17754232 13.32935021 1.66630374 15.3671875 1.1484375 C18.99100279 0.56901988 22.4795638 0.65713302 26.125 0.875 C27.40117187 0.95105469 28.67734375 1.02710937 29.9921875 1.10546875 C33.26277253 1.6897819 34.33442879 2.05536326 36.25 4.6875 C36.83265625 4.4709375 37.4153125 4.254375 38.015625 4.03125 C44.88896743 1.69690729 51.02773277 1.35244637 58.25 1.6875 C60.53503554 6.79469098 60.84281021 11.15755398 60.25 16.6875 C58.91362375 20.089185 57.81521154 22.12228846 55.25 24.6875 C53.39375 24.378125 53.39375 24.378125 51.5 24.0625 C48.04642471 23.54226997 47.29675177 23.66544728 43.9375 25.25 C39.7848215 29.01638282 38.13207262 32.64799471 37.83691406 38.20483398 C37.80109433 39.94754781 37.77800457 41.6905558 37.765625 43.43359375 C37.71727842 45.34182591 37.66776328 47.25002875 37.6171875 49.15820312 C37.55333668 52.14470245 37.49994168 55.13041495 37.46777344 58.11743164 C37.43051107 61.01601387 37.35087969 63.91107919 37.265625 66.80859375 C37.2674176 67.69421494 37.26921021 68.57983612 37.27105713 69.49229431 C37.09603165 74.4268369 36.36884468 77.13132143 32.89746094 80.75024414 C30.39184519 83.04347797 29.26789053 83.68286172 25.875 84.5625 C20.65352154 83.30214313 17.1104439 80.34912276 13.25 76.6875 C11.77447042 73.73644084 12.15752286 71.11978137 12.1875 67.828125 C12.19616006 66.39762439 12.20470013 64.96712305 12.21313477 63.53662109 C12.21934845 62.78531921 12.22556213 62.03401733 12.23196411 61.25994873 C12.31795874 50.18657606 12.33693774 39.12657086 11.8125 28.0625 C11.77318359 27.21333008 11.73386719 26.36416016 11.69335938 25.48925781 C11.4306585 20.51612823 10.9218607 15.62200632 10.25 10.6875 C9.30542918 18.00114826 8.95161512 25.28279611 8.68037796 32.64984894 C8.59978095 34.81345016 8.51354836 36.97676024 8.42562866 39.14007568 C8.17603605 45.28495655 7.92949836 51.42989796 7.703125 57.57568359 C7.56355474 61.35371997 7.41168821 65.13110073 7.25223923 68.90834808 C7.19438213 70.33204567 7.14089234 71.75592886 7.09221268 73.17996979 C6.5972391 87.55959281 5.17170023 101.08679689 -4.9375 112.0625 C-14.99428273 117.87308558 -25.30796965 119.21053816 -36.75 117.6875 C-40.62623901 116.59519325 -43.53350422 115.08906787 -46.75 112.6875 C-47.39066406 112.23761719 -48.03132813 111.78773438 -48.69140625 111.32421875 C-54.95027389 106.09272463 -57.12824022 98.14943167 -59.75 90.6875 C-58.76 90.1925 -58.76 90.1925 -57.75 89.6875 C-57.42 88.6975 -57.09 87.7075 -56.75 86.6875 C-54.59707106 87.75898084 -52.45099355 88.84131582 -50.3125 89.94140625 C-49.0440625 90.58916016 -49.0440625 90.58916016 -47.75 91.25 C-46.4815625 91.90162109 -46.4815625 91.90162109 -45.1875 92.56640625 C-41.00074148 94.49204679 -37.41639693 94.86783195 -32.8125 94.9375 C-31.79285156 94.96328125 -30.77320313 94.9890625 -29.72265625 95.015625 C-26.25862258 94.63326123 -24.47385633 93.84845782 -21.75 91.6875 C-18.61257537 85.66673795 -18.16206621 78.36581437 -17.75 71.6875 C-18.45125 72.16960937 -19.1525 72.65171875 -19.875 73.1484375 C-30.08993326 79.94914035 -37.43564539 82.05801326 -49.75 79.6875 C-56.1711254 77.11493373 -60.94570922 72.47894886 -63.90625 66.2578125 C-69.17428208 53.5769067 -69.6197413 39.53408689 -65.01171875 26.55078125 C-63.07823709 22.16303494 -60.71016227 18.44654944 -57.75 14.6875 C-57.22535156 13.97722656 -56.70070313 13.26695312 -56.16015625 12.53515625 C-50.84502665 5.81933367 -44.18528211 2.10291436 -35.75 0.6875 C-34.06628438 0.62109434 -32.38018054 0.60202888 -30.6953125 0.625 C-29.27798828 0.63660156 -29.27798828 0.63660156 -27.83203125 0.6484375 C-25.86848822 0.67437598 -23.90494653 0.70041682 -21.94140625 0.7265625 C-14.55301752 0.78687588 -7.35816715 -0.57863521 0 0 Z M-34.75 27.6875 C-39.22699849 33.49993569 -40.91655045 38.31320702 -41.0625 45.6875 C-41.09988281 46.925 -41.13726562 48.1625 -41.17578125 49.4375 C-41.06428246 52.71345329 -41.06428246 52.71345329 -38.99609375 54.58984375 C-35.18370753 56.45294032 -31.88609579 56.52828013 -27.75 55.6875 C-22.75191764 53.09333961 -19.18220068 49.80098215 -16.75 44.6875 C-16.27688034 41.31283188 -16.27688034 41.31283188 -16.375 37.75 C-16.36726563 36.56535156 -16.35953125 35.38070312 -16.3515625 34.16015625 C-16.88865603 29.47901757 -18.29273186 26.05368889 -21.75 22.8125 C-27.02846779 19.84336187 -30.95456902 24.17321205 -34.75 27.6875 Z " fill="#7DD956" transform="translate(352.75,123.3125)"/>
<path d="M0 0 C6.51838928 3.37104866 8.29571129 8.68822718 10.4375 15.28515625 C10.71843002 16.12094208 10.99936005 16.95672791 11.2888031 17.81784058 C12.1979254 20.52789698 13.09305606 23.2423562 13.98828125 25.95703125 C15.23534147 29.69022785 16.48901085 33.42119669 17.7421875 37.15234375 C18.04912537 38.0696225 18.35606323 38.98690125 18.67230225 39.93197632 C21.13659001 47.27848859 23.74622862 54.5611071 26.42578125 61.83203125 C31.25504672 75.10464515 34.86276245 87.49332117 35.30078125 101.70703125 C30.72699853 105.18347497 26.81212185 105.19373965 21.30078125 105.14453125 C20.50671875 105.16451172 19.71265625 105.18449219 18.89453125 105.20507812 C14.96367275 105.20180241 12.83953261 105.04651841 9.44921875 102.91015625 C8.74023438 102.183125 8.03125 101.45609375 7.30078125 100.70703125 C6.69492187 100.10503906 6.0890625 99.50304687 5.46484375 98.8828125 C1.34802012 93.89873923 1.34802012 93.89873923 1.21484375 90.5390625 C1.43548143 89.08952425 1.69828344 87.6456639 2.00634766 86.2121582 C2.3408535 83.36608488 1.967712 81.20821964 1.34765625 78.41796875 C1.15526367 77.53157715 0.96287109 76.64518555 0.76464844 75.73193359 C0.61157227 75.06371582 0.45849609 74.39549805 0.30078125 73.70703125 C-4.65840698 74.66097356 -9.60896019 75.64309527 -14.55078125 76.68359375 C-17.45359101 77.28847682 -20.20248002 77.75588054 -23.16015625 78.04296875 C-26.34351338 78.45343027 -28.05618843 78.84892772 -30.69921875 80.70703125 C-33.61643497 84.69715499 -35.68426164 89.12319452 -37.7265625 93.60546875 C-39.3236134 97.06587702 -40.98194243 99.97354851 -43.69921875 102.70703125 C-47.19921875 102.95703125 -47.19921875 102.95703125 -50.69921875 102.70703125 C-51.78203125 103.01640625 -51.78203125 103.01640625 -52.88671875 103.33203125 C-55.37280391 103.8463937 -56.58400638 102.99126733 -58.69921875 101.70703125 C-58.69921875 101.04703125 -58.69921875 100.38703125 -58.69921875 99.70703125 C-59.35921875 99.70703125 -60.01921875 99.70703125 -60.69921875 99.70703125 C-63.49868408 95.0412557 -64.5591566 91.07686537 -63.69921875 85.70703125 C-62.42965412 81.54340531 -60.72780876 77.6187271 -58.6652832 73.78540039 C-54.28062252 65.49184439 -51.3228914 56.73699794 -48.26171875 47.89453125 C-47.97608063 47.07465729 -47.6904425 46.25478333 -47.39614868 45.4100647 C-44.05003878 35.79474022 -40.74294662 26.16891386 -37.88671875 16.39453125 C-37.65090088 15.60393311 -37.41508301 14.81333496 -37.17211914 13.9987793 C-36.15414014 10.34266888 -35.59893129 7.12454147 -35.671875 3.3203125 C-35.69921875 -0.29296875 -35.69921875 -0.29296875 -33.94921875 -2.79296875 C-23.95793069 -7.40433247 -9.93639018 -3.47301494 0 0 Z M-14.69921875 32.70703125 C-15.87351949 35.97517445 -17.03733131 39.2469564 -18.19921875 42.51953125 C-18.70001953 43.91268555 -18.70001953 43.91268555 -19.2109375 45.33398438 C-19.52675781 46.22666016 -19.84257812 47.11933594 -20.16796875 48.0390625 C-20.46123047 48.86124268 -20.75449219 49.68342285 -21.05664062 50.53051758 C-21.840794 52.80833779 -21.840794 52.80833779 -21.69921875 55.70703125 C-16.74921875 55.04703125 -11.79921875 54.38703125 -6.69921875 53.70703125 C-9.00921875 46.77703125 -11.31921875 39.84703125 -13.69921875 32.70703125 C-14.02921875 32.70703125 -14.35921875 32.70703125 -14.69921875 32.70703125 Z " fill="#7DD956" transform="translate(252.69921875,102.29296875)"/>
<path d="M0 0 C1.89257434 3.35943514 2.04191019 5.25144348 1.91015625 9.0859375 C1.87535156 10.32214844 1.84054687 11.55835938 1.8046875 12.83203125 C1.57314663 17.6468939 1.27671102 22.4585888 0.95654297 27.26831055 C0.45781347 35.12374704 0.50903695 42.96851304 0.59765625 50.8359375 C2.08896662 49.45308606 3.5653081 48.05408011 5.03515625 46.6484375 C5.85886719 45.87113281 6.68257813 45.09382813 7.53125 44.29296875 C9.76797434 41.63342318 10.08382161 40.18967543 10.59765625 36.8359375 C13.87943902 33.03597851 16.075126 31.07014503 21.1640625 30.59765625 C28.1790793 30.42388139 34.56044583 30.93941125 40.59765625 34.8359375 C42.96017996 38.4871105 43.1265597 41.52915224 42.59765625 45.8359375 C39.23302519 49.63114292 35.36536128 52.76192459 31.34765625 55.8359375 C30.78280518 56.27019043 30.2179541 56.70444336 29.63598633 57.15185547 C25.19174195 60.51040113 20.604911 63.37759537 15.59765625 65.8359375 C17.02136722 69.09762857 18.74757412 71.20013702 21.30078125 73.6640625 C22.03425781 74.38207031 22.76773438 75.10007812 23.5234375 75.83984375 C25.05702924 77.32188619 26.59087796 78.80366275 28.125 80.28515625 C43.32326236 95.16513039 43.32326236 95.16513039 43.78515625 104.7109375 C43.69234375 106.2578125 43.69234375 106.2578125 43.59765625 107.8359375 C42.65792969 108.25166016 42.65792969 108.25166016 41.69921875 108.67578125 C40.88195312 109.03800781 40.0646875 109.40023437 39.22265625 109.7734375 C38.41054688 110.13308594 37.5984375 110.49273437 36.76171875 110.86328125 C35.3608184 111.4929278 33.97140341 112.14906392 32.59765625 112.8359375 C23.70847579 112.98166177 17.6858091 108.64536424 10.59765625 103.8359375 C12.57765625 103.3409375 12.57765625 103.3409375 14.59765625 102.8359375 C12.41689418 99.00392747 9.94826552 95.62437313 7.16015625 92.2109375 C6.39832031 91.26992188 5.63648438 90.32890625 4.8515625 89.359375 C2.88252084 87.15486735 1.03187734 85.48832448 -1.40234375 83.8359375 C-1.45132812 84.77695312 -1.5003125 85.71796875 -1.55078125 86.6875 C-1.62554687 87.93273437 -1.7003125 89.17796875 -1.77734375 90.4609375 C-1.84695313 91.69070313 -1.9165625 92.92046875 -1.98828125 94.1875 C-2.5006728 98.70234631 -2.97046187 102.38581509 -6.2421875 105.69921875 C-6.93441406 106.17746094 -7.62664062 106.65570313 -8.33984375 107.1484375 C-9.37431641 107.88513672 -9.37431641 107.88513672 -10.4296875 108.63671875 C-14.52180847 111.12440417 -18.73171673 111.54774496 -23.40234375 110.8359375 C-26.02414037 108.46786314 -26.72937593 106.22457214 -27.40234375 102.8359375 C-27.49608563 100.88716766 -27.53304704 98.93539703 -27.53515625 96.984375 C-27.53700928 95.76468018 -27.5388623 94.54498535 -27.54077148 93.28833008 C-27.53660726 91.92919823 -27.53212034 90.57006734 -27.52734375 89.2109375 C-27.52678986 88.51551849 -27.52623596 87.82009949 -27.52566528 87.10360718 C-27.51651765 77.07288027 -27.36177933 67.04771089 -27.140625 57.01953125 C-27.11659607 55.91667786 -27.09256714 54.81382446 -27.06781006 53.67755127 C-26.94613794 48.17646934 -26.81500381 42.67581983 -26.67041016 37.17529297 C-26.41149184 26.6542034 -26.29935244 16.31953059 -27.40234375 5.8359375 C-28.39234375 5.5059375 -29.38234375 5.1759375 -30.40234375 4.8359375 C-28.99762099 1.44119084 -27.63841932 -0.37570495 -24.40234375 -2.1640625 C-17.17526789 -3.77007936 -5.73062671 -5.16222308 0 0 Z " fill="#38B549" transform="translate(405.40234375,249.1640625)"/>
<path d="M0 0 C6.35940842 4.02000659 9.87422717 10.03053862 11.84765625 17.16796875 C12.2307163 20.43242089 12.22283347 23.64999351 12.17578125 26.93359375 C12.17390808 27.84824402 12.17203491 28.76289429 12.17010498 29.70526123 C12.1634162 31.63150707 12.14956544 33.55774006 12.12890625 35.48388672 C12.09789407 38.3956401 12.08793874 41.30684805 12.08203125 44.21875 C11.96581993 72.37203468 11.96581993 72.37203468 7.84765625 78.16796875 C4.92615067 80.54845477 1.62718188 80.60476642 -2.078125 80.4609375 C-7.27884948 79.7263719 -10.0796539 77.45212076 -13.33203125 73.55859375 C-18.81323085 66.18530746 -18.81323085 66.18530746 -20.15234375 62.16796875 C-17.18234375 62.66296875 -17.18234375 62.66296875 -14.15234375 63.16796875 C-14.15234375 49.30796875 -14.15234375 35.44796875 -14.15234375 21.16796875 C-22.03633865 23.29183997 -22.03633865 23.29183997 -27.02734375 27.91796875 C-27.56101562 28.5521875 -28.0946875 29.18640625 -28.64453125 29.83984375 C-32.16678051 35.2783426 -33.62877861 40.59937339 -34.21484375 46.98046875 C-34.29226807 47.70459961 -34.36969238 48.42873047 -34.44946289 49.17480469 C-34.78387399 52.32387067 -35.0877414 55.47534912 -35.38183594 58.62841797 C-35.53514456 60.26662083 -35.69288379 61.90441558 -35.85522461 63.54174805 C-36.00812296 65.09030128 -36.15010855 66.63998293 -36.27954102 68.19067383 C-36.70764077 72.51738122 -37.16955804 75.90437686 -40.15234375 79.16796875 C-43.3671875 79.9453125 -43.3671875 79.9453125 -47.08984375 80.10546875 C-48.31574219 80.17636719 -49.54164063 80.24726563 -50.8046875 80.3203125 C-54.0038825 80.17472486 -55.61285527 80.05932792 -58.15234375 78.16796875 C-60.1736102 74.95357696 -60.39267263 72.45946157 -60.36352539 68.70019531 C-60.36014664 67.60515686 -60.35676788 66.51011841 -60.35328674 65.38189697 C-60.33982712 64.20270691 -60.32636749 63.02351685 -60.3125 61.80859375 C-60.30729843 60.59024841 -60.30209686 59.37190308 -60.29673767 58.11663818 C-60.27891377 54.21696099 -60.24776475 50.31754547 -60.21484375 46.41796875 C-60.1871606 42.5326991 -60.1624254 38.64746926 -60.1436615 34.762146 C-60.1314803 32.34467159 -60.11395242 29.92721651 -60.09034729 27.50982666 C-59.66605756 16.42256052 -59.66605756 16.42256052 -63.15234375 6.16796875 C-57.15444576 0.60894135 -51.45912921 -1.34850484 -43.234375 -1.15234375 C-39.98289065 -0.65211539 -38.33645779 0.78529889 -36.15234375 3.16796875 C-35.45695933 4.48655236 -34.78476177 5.81805406 -34.15234375 7.16796875 C-33.42789062 6.68585938 -32.7034375 6.20375 -31.95703125 5.70703125 C-30.99023438 5.07539063 -30.0234375 4.44375 -29.02734375 3.79296875 C-28.07601562 3.16648437 -27.1246875 2.54 -26.14453125 1.89453125 C-18.21678554 -2.67996431 -8.53397095 -3.73251707 0 0 Z " fill="#38B549" transform="translate(360.15234375,278.83203125)"/>
<path d="M0 0 C0.78503906 0.53753906 1.57007813 1.07507813 2.37890625 1.62890625 C2.98863281 2.01175781 3.59835937 2.39460937 4.2265625 2.7890625 C10.86703271 7.52740314 14.6575601 15.90653682 16.37890625 23.62890625 C17.38886956 34.47473993 17.6515058 45.84434447 12.37890625 55.62890625 C12.01667969 56.33789062 11.65445313 57.046875 11.28125 57.77734375 C5.94883876 67.21300025 -1.42851641 73.07902506 -11.62109375 76.62890625 C-20.10488022 78.85925278 -33.57287943 79.37226175 -41.62109375 75.62890625 C-50.30861331 69.79835621 -56.45671517 60.90157592 -59.15234375 50.79296875 C-60.72434422 40.18196555 -61.32830022 27.48907738 -56.62109375 17.62890625 C-56.21890625 16.78199219 -55.81671875 15.93507812 -55.40234375 15.0625 C-50.34622959 5.63846499 -42.58434359 0.17224176 -32.62109375 -3.37109375 C-21.9069569 -6.38571249 -9.54659874 -5.7226482 0 0 Z M-31.62109375 20.62890625 C-35.77101371 26.93107697 -37.12256558 33.10682878 -36.62109375 40.62890625 C-35.41506814 45.86979693 -34.0727076 50.29019586 -29.62109375 53.62890625 C-25.55495846 54.98428468 -21.87221496 55.15281203 -17.62109375 54.62890625 C-12.98697408 52.11036295 -11.14599782 48.53596935 -9.62109375 43.62890625 C-9.17068246 40.67922801 -9.0973922 37.79711379 -9.12109375 34.81640625 C-9.12391357 34.02685547 -9.1267334 33.23730469 -9.12963867 32.42382812 C-9.30573789 26.05021461 -10.57815846 20.7309767 -14.62109375 15.62890625 C-21.86161308 10.80189336 -26.56257261 14.91245379 -31.62109375 20.62890625 Z " fill="#7DD956" transform="translate(469.62109375,128.37109375)"/>
<path d="M0 0 C5.85268542 7.7842115 0.37008324 30.65279159 -0.32617188 39.88134766 C-0.61047312 43.65244086 -0.88703374 47.42404222 -1.16235352 51.19580078 C-1.34094105 53.61250066 -1.51996227 56.02916855 -1.69946289 58.44580078 C-1.78179672 59.5636496 -1.86413055 60.68149841 -1.94895935 61.83322144 C-2.3788738 67.50406607 -2.90580503 73.13057374 -3.67211914 78.76611328 C-2.36621826 78.60385254 -1.06031738 78.4415918 0.28515625 78.27441406 C4.87741797 77.76602492 9.39477427 77.62058147 14.01147461 77.63330078 C15.18384422 77.63186569 15.18384422 77.63186569 16.37989807 77.63040161 C18.01254356 77.62972726 19.64519184 77.63152892 21.27783203 77.63574219 C23.78350733 77.64115242 26.28900753 77.63574604 28.79467773 77.62939453 C30.38777709 77.63005445 31.98087633 77.63133383 33.57397461 77.63330078 C34.3228746 77.63127655 35.0717746 77.62925232 35.84336853 77.62716675 C41.09788938 77.65111754 41.09788938 77.65111754 43.32788086 78.76611328 C45.60304364 84.21398013 47.02234539 89.8631648 46.32788086 95.76611328 C45.0014629 98.90762949 44.16321943 100.34674053 41.1018219 101.88368225 C37.9777031 102.87750992 35.40910739 103.04017576 32.13232422 103.07250977 C30.29032692 103.09649086 30.29032692 103.09649086 28.41111755 103.12095642 C26.43438805 103.12900047 26.43438805 103.12900047 24.41772461 103.13720703 C23.04439702 103.14617996 21.6710704 103.15530193 20.29774475 103.16456604 C17.42552316 103.18101806 14.55341766 103.18874989 11.68115234 103.19165039 C8.0032129 103.19704789 4.32636464 103.23479784 0.64873409 103.28039455 C-2.18489065 103.310144 -5.01825101 103.31737336 -7.85201836 103.31837654 C-9.86622176 103.32461854 -11.88030982 103.35409088 -13.89430237 103.38389587 C-15.11914841 103.37781815 -16.34399445 103.37174042 -17.60595703 103.36547852 C-19.22214684 103.37308449 -19.22214684 103.37308449 -20.87098694 103.38084412 C-23.67211914 102.76611328 -23.67211914 102.76611328 -26.02386475 100.71220398 C-28.06279356 97.06782164 -28.20127852 94.09225088 -28.11035156 90.02929688 C-28.10932938 89.26595032 -28.10830719 88.50260376 -28.10725403 87.71612549 C-28.09938618 85.19844542 -28.06339272 82.68197522 -28.02758789 80.16455078 C-28.01757565 78.4044389 -28.00949318 76.64431508 -28.00325012 74.88418579 C-27.98232561 70.24887597 -27.93829291 65.61408263 -27.88848877 60.97900391 C-27.81324708 53.58272959 -27.77485979 46.18615389 -27.73299599 38.78963089 C-27.71546695 36.22011609 -27.68928803 33.65081145 -27.66142273 31.08139038 C-26.68762576 16.79608379 -26.68762576 16.79608379 -30.67211914 3.76611328 C-30.54711914 1.70361328 -30.54711914 1.70361328 -29.67211914 -0.23388672 C-22.7858094 -5.26618999 -6.95200808 -5.13001151 0 0 Z " fill="#38B549" transform="translate(222.672119140625,255.23388671875)"/>
<path d="M0 0 C4.36792676 4.34737181 7.09918756 7.84426153 7.3125 14.1875 C7.23262968 19.09952446 6.12195475 23.15037159 3 27 C-2.58603409 31.68462707 -7.39425902 33.17501048 -14.5 34.45703125 C-15.49451172 34.64972092 -16.48902344 34.84241058 -17.51367188 35.04093933 C-19.6065066 35.4430041 -21.70096688 35.83668887 -23.796875 36.22241211 C-26.9934185 36.81128754 -30.18419684 37.42577049 -33.375 38.04492188 C-35.41638035 38.4337977 -37.45803882 38.82121696 -39.5 39.20703125 C-40.9221582 39.47879936 -40.9221582 39.47879936 -42.37304688 39.75605774 C-50.32594408 41.20917959 -56.61897784 41.96388227 -64 38 C-69.05539765 33.74887016 -71.6913933 29.73337362 -72.4375 23.125 C-72.1946247 17.36223163 -69.72244771 12.87442839 -65.875 8.6875 C-57.34972494 3.6835342 -46.5864531 2.59036241 -36.98681641 0.78295898 C-34.50337495 0.31313848 -32.023267 -0.17209605 -29.54296875 -0.65820312 C-7.06499116 -4.97760741 -7.06499116 -4.97760741 0 0 Z " fill="#38B549" transform="translate(120,507)"/>
<path d="M0 0 C5.21943072 4.59806992 7.29044684 8.83314719 7.9375 15.5625 C7.45822761 21.31376868 5.39252455 25.44397405 1.4375 29.625 C-5.71511255 33.91656753 -13.99700358 35.18137255 -22.125 36.5 C-23.18251465 36.67217041 -24.2400293 36.84434082 -25.32958984 37.02172852 C-42.89731313 39.75175649 -42.89731313 39.75175649 -50.875 37.1875 C-56.64923155 32.85682634 -59.17582802 29.01407153 -60.27734375 21.90234375 C-60.47230965 16.73184821 -59.11196127 12.68721123 -56.06640625 8.5234375 C-51.45497076 3.85450281 -45.92114238 2.78613119 -39.63085938 1.70410156 C-36.93047848 1.23533414 -34.23980949 0.72071466 -31.546875 0.2109375 C-29.42754017 -0.17439611 -27.30774189 -0.55718901 -25.1875 -0.9375 C-23.67361694 -1.21907959 -23.67361694 -1.21907959 -22.12915039 -1.50634766 C-14.47883977 -2.81175035 -7.10928761 -3.55464381 0 0 Z " fill="#38B549" transform="translate(103.375,471.6875)"/>
<path d="M0 0 C4.91372425 3.91092338 8.037006 7.54748385 9.0625 13.875 C9.3648171 19.43007665 8.11456583 23.72189193 4.7578125 28.1640625 C0.1042171 32.86396233 -5.33201005 33.95366008 -11.68164062 35.04589844 C-14.38202152 35.51466586 -17.07269051 36.02928534 -19.765625 36.5390625 C-21.88495983 36.92439611 -24.00475811 37.30718901 -26.125 37.6875 C-27.63888306 37.96907959 -27.63888306 37.96907959 -29.18334961 38.25634766 C-36.8545773 39.56531951 -44.84354643 40.5550344 -51.8125 36.4375 C-55.7160318 33.2092237 -57.76094198 29.32950439 -58.9375 24.4375 C-59.31814566 18.11878203 -58.19855294 13.2743709 -53.9375 8.4375 C-44.42394019 -0.10031008 -11.90485113 -5.88896687 0 0 Z " fill="#38B549" transform="translate(132.9375,541.5625)"/>
<path d="M0 0 C4.01238575 4.71917457 6.37687106 9.74629578 6 16 C5.00463111 22.086266 2.91857728 25.77171142 -1.85107422 29.67089844 C-5.78804217 32.10589657 -10.04301247 32.64141494 -14.5625 33.3125 C-15.48224609 33.46783203 -16.40199219 33.62316406 -17.34960938 33.78320312 C-19.12201407 34.08009047 -20.89625898 34.36624992 -22.67236328 34.64013672 C-24.54507092 34.92966588 -26.41235117 35.25418954 -28.27734375 35.58984375 C-35.31812826 36.65050713 -43.0418127 37.39770968 -49 33 C-53.36087557 28.63912443 -56.09887231 25.16511295 -56.3125 18.8125 C-56.22138166 13.71815643 -55.00853615 10.10192835 -52 6 C-45.72147055 0.26074972 -37.6633729 -0.59785379 -29.5625 -1.875 C-28.29083984 -2.09929688 -27.01917969 -2.32359375 -25.70898438 -2.5546875 C-16.89383982 -4.01702356 -7.75252835 -5.46200861 0 0 Z " fill="#38B549" transform="translate(158,577)"/>
<path d="M0 0 C4.18158693 2.30413973 5.58331405 4.53432523 7 9 C7.13525391 12.09594727 7.13525391 12.09594727 6.9765625 15.56640625 C6.92508057 16.84717041 6.87359863 18.12793457 6.82055664 19.44750977 C6.75545645 20.81917723 6.69026917 22.19084056 6.625 23.5625 C6.50610555 26.37478445 6.3950106 29.18734945 6.28515625 32 C6.24330452 33.03919334 6.24330452 33.03919334 6.2006073 34.09938049 C5.98271384 39.75994036 5.98173401 45.39984392 6.0625 51.0625 C6.24554663 71.58476255 6.24554663 71.58476255 1 79 C-3.80687831 82.97089947 -3.80687831 82.97089947 -7.5625 83.0625 C-12.47397838 80.92159917 -15.3957871 77.19466947 -17.40011597 72.28942871 C-18.74393789 67.16079665 -18.31458957 61.77614275 -18.22265625 56.515625 C-18.20892556 54.54108197 -18.19520529 52.56653879 -18.18211269 50.59199142 C-18.16034717 47.84254832 -18.12506726 45.09334818 -18.0894165 42.34405518 C-18.02735243 37.51558319 -17.97498723 32.68708548 -17.94029236 27.8583374 C-17.92047844 25.29073396 -17.89078738 22.72318432 -17.85035706 20.15582275 C-17.84052292 18.99741882 -17.83068878 17.83901489 -17.82055664 16.64550781 C-17.80032188 15.11497772 -17.80032188 15.11497772 -17.77967834 13.55352783 C-17.81470585 10.75672539 -17.81470585 10.75672539 -20 8 C-19.79872257 5.48882443 -19.45593132 4.39497793 -17.5390625 2.734375 C-11.77567182 -0.22965449 -6.42994539 -0.99775015 0 0 Z " fill="#38B549" transform="translate(288,278)"/>
<path d="M0 0 C4.30746475 2.23656823 7.52075882 4.80436107 10 9 C10.8481277 13.25794722 10.51732829 16.11862588 8.3125 19.875 C3.73254147 24.08361054 -0.52250191 24.39902007 -6.55859375 24.24609375 C-10.0119861 23.8979918 -12.22097329 23.08427003 -15 21 C-17.35813422 16.49810741 -18.07610508 10.99423126 -17 6 C-12.82958264 0.43505822 -6.63051752 -0.90587716 0 0 Z " fill="#38B549" transform="translate(286,248)"/>
<path d="" fill="#80D959" transform="translate(0,0)"/>
<path d="" fill="#80DF55" transform="translate(0,0)"/>
</svg>
